<?xml version="1.0" encoding="utf-8"?>
<!-- Generator: Adobe Illustrator 26.5.2, SVG Export Plug-In . SVG Version: 6.00 Build 0)  -->
<svg version="1.1" xmlns="http://www.w3.org/2000/svg" xmlns:xlink="http://www.w3.org/1999/xlink" x="0px" y="0px"
	 viewBox="0 0 32 24" style="enable-background:new 0 0 32 24;" xml:space="preserve">
<style type="text/css">
	.st0{fill:#171717;stroke:#232323;stroke-miterlimit:10;}
	.st1{fill:#FFFFFF;}
</style>
<g id="BG">
	<path class="st0" d="M29,23.5H3c-1.4,0-2.5-1.1-2.5-2.5V3c0-1.4,1.1-2.5,2.5-2.5h26c1.4,0,2.5,1.1,2.5,2.5v18
		C31.5,22.4,30.4,23.5,29,23.5z"/>
</g>
<g id="LOGO">
	<polygon class="st1" points="18.6,4.5 19.5,4.5 21.8,7 21.8,15.7 20.9,17.8 18.9,19.3 20.4,16.9 20.8,16 20.8,7.1 	"/>
	<polygon class="st1" points="17.3,4.5 20.1,7.3 20.1,15.5 19.4,17.4 16.5,19.5 13.9,19.3 11.9,17.8 11,15.6 11,15.2 12.6,16.8 
		14.5,17.1 15.9,16.9 17.3,15.3 	"/>
	<polygon class="st1" points="14.6,4.5 15.6,4.5 15.6,16.3 14.6,15.2 	"/>
	<polygon class="st1" points="11.1,7.3 13.8,4.5 13.8,15.3 14.4,16.4 12.2,15.7 11.1,13.8 	"/>
</g>
</svg>
